<?xml version="1.0" standalone="no"?>
<!DOCTYPE svg PUBLIC "-//W3C//DTD SVG 20010904//EN"
 "http://www.w3.org/TR/2001/REC-SVG-20010904/DTD/svg10.dtd">
<svg version="1.0" xmlns="http://www.w3.org/2000/svg"
 width="512.000000pt" height="512.000000pt" viewBox="0 0 512.000000 512.000000"
 preserveAspectRatio="xMidYMid meet">

<g transform="translate(0.000000,512.000000) scale(0.100000,-0.100000)"
fill="inherit" stroke="inherit">
<path d="M2350 5104 c-328 -38 -544 -92 -799 -201 -447 -191 -851 -529 -1124
-939 -216 -326 -350 -686 -409 -1099 -18 -130 -15 -453 6 -605 86 -632 315
-1119 711 -1516 346 -347 783 -579 1282 -680 847 -171 1722 67 2321 631 489
461 775 1155 776 1885 1 389 -83 744 -259 1099 -379 763 -1083 1277 -1925
1406 -100 16 -498 29 -580 19z m561 -334 c854 -125 1515 -675 1779 -1478 86
-260 124 -499 124 -767 0 -200 -16 -334 -64 -527 -157 -628 -604 -1182 -1183
-1468 -331 -162 -639 -234 -1007 -234 -217 0 -346 15 -544 65 -647 161 -1189
598 -1481 1194 -161 328 -228 613 -229 965 0 285 37 513 129 789 260 778 904
1317 1740 1456 229 38 497 40 736 5z"/>
<path d="M1083 3660 c-73 -17 -117 -72 -116 -145 1 -30 252 -837 299 -959 5
-14 -6 -16 -90 -16 -108 0 -137 -10 -181 -62 -24 -29 -27 -38 -23 -95 3 -49 9
-68 28 -89 43 -46 77 -54 228 -54 l138 0 165 -511 c90 -282 172 -525 181 -541
53 -87 203 -90 250 -5 7 12 87 254 178 537 l166 515 254 0 254 0 166 -515 c91
-283 171 -525 178 -537 47 -85 197 -82 250 5 9 16 91 259 181 541 l165 511
138 0 c151 0 185 8 228 54 19 21 25 40 28 89 4 57 1 66 -23 95 -44 52 -73 62
-181 62 -84 0 -95 2 -90 16 48 126 298 929 299 960 0 24 -8 56 -19 75 -55 93
-199 96 -253 4 -10 -16 -92 -261 -182 -542 l-164 -513 -252 0 -252 0 -76 238
c-254 790 -264 817 -292 844 -15 14 -45 31 -65 36 -49 13 -104 -1 -141 -36
-28 -27 -38 -54 -292 -844 l-76 -238 -252 0 -252 0 -164 513 c-90 281 -171
525 -180 540 -29 52 -98 81 -158 67z m1555 -877 c40 -126 72 -231 72 -235 0
-5 -67 -8 -150 -8 -82 0 -150 3 -150 8 -1 15 145 462 150 462 3 0 38 -102 78
-227z m-648 -547 c0 -7 -149 -469 -153 -472 -2 -2 -14 28 -25 68 -12 40 -46
148 -76 241 l-54 167 154 0 c85 0 154 -2 154 -4z m1392 -168 c-30 -95 -65
-204 -77 -243 l-22 -70 -21 65 c-75 234 -132 412 -132 415 0 3 69 5 154 5
l154 0 -56 -172z"/>
</g>
</svg>
