<?xml version="1.0" standalone="no"?>
<!DOCTYPE svg PUBLIC "-//W3C//DTD SVG 20010904//EN"
 "http://www.w3.org/TR/2001/REC-SVG-20010904/DTD/svg10.dtd">
<svg version="1.0" xmlns="http://www.w3.org/2000/svg"
 width="500.000000pt" height="500.000000pt" viewBox="0 0 500.000000 500.000000"
 preserveAspectRatio="xMidYMid meet">

<g transform="translate(0.000000,500.000000) scale(0.100000,-0.100000)"
fill="#3D4D9A" stroke="none">
<path d="M2250 4824 c-14 -3 -79 -14 -144 -24 -121 -20 -146 -26 -271 -62
-263 -75 -500 -193 -735 -366 -220 -163 -479 -449 -612 -677 -46 -78 -178
-357 -178 -375 0 -5 -6 -24 -14 -42 -40 -95 -62 -186 -101 -407 -22 -125 -25
-175 -25 -365 0 -189 4 -242 25 -366 44 -259 95 -423 206 -655 61 -130 126
-236 230 -375 153 -205 384 -422 589 -551 47 -30 94 -60 105 -67 35 -22 258
-130 300 -145 215 -77 256 -89 390 -116 396 -79 765 -63 1156 52 63 19 129 42
147 51 17 9 36 16 42 16 14 0 236 109 310 152 261 151 567 434 723 668 9 14
30 44 47 68 16 23 30 45 30 48 0 3 15 28 33 57 146 231 262 585 298 912 56
490 -55 1001 -314 1446 -153 264 -435 561 -697 735 -281 187 -563 301 -911
365 -92 17 -162 22 -359 24 -135 2 -256 1 -270 -1z m565 -198 c245 -42 455
-110 640 -206 90 -46 87 -45 204 -119 168 -105 393 -310 509 -461 23 -30 46
-59 50 -65 50 -64 126 -188 174 -280 278 -539 315 -1175 102 -1745 -45 -121
-129 -289 -191 -382 -26 -40 -50 -77 -52 -83 -12 -29 -167 -212 -245 -291
-257 -256 -592 -455 -926 -548 -459 -128 -970 -101 -1395 74 -71 30 -275 134
-334 171 -205 128 -386 296 -583 538 -10 12 -104 157 -135 207 -30 49 -98 186
-125 254 -69 171 -106 310 -138 513 -19 121 -22 166 -17 350 4 207 16 306 53
457 99 398 295 742 585 1027 96 93 232 206 304 251 22 13 60 38 85 54 73 48
298 154 395 187 133 44 266 77 390 95 61 9 121 18 135 20 57 10 429 -3 515
-18z"/>
<path d="M1270 3540 c0 -16 8 -71 19 -122 21 -106 53 -279 76 -418 16 -94 35
-204 75 -415 11 -60 20 -118 20 -127 0 -17 -17 -18 -220 -18 l-220 0 0 -85 0
-85 237 -2 237 -3 18 -95 c22 -118 54 -300 73 -405 20 -114 54 -307 70 -395 8
-41 19 -108 25 -147 l12 -73 132 0 132 0 12 57 c6 32 17 78 23 103 6 25 20 81
31 125 11 44 28 114 39 155 10 41 35 143 54 225 20 83 44 182 54 220 10 39 27
107 37 153 l19 82 264 -2 264 -3 32 -130 c18 -71 49 -200 69 -285 37 -155 76
-316 138 -567 l32 -133 133 0 133 0 0 29 c0 15 9 73 19 127 11 54 27 142 36
194 15 90 30 173 75 418 10 59 27 152 36 207 9 55 18 110 20 123 l4 22 240 0
240 0 0 85 0 85 -219 0 c-121 0 -222 3 -224 8 -3 4 1 36 8 72 7 36 23 121 35
190 12 69 30 170 40 225 10 55 25 141 34 190 13 79 28 162 66 374 6 30 10 58
10 63 0 4 -42 8 -93 8 l-93 0 -12 -82 c-6 -46 -23 -146 -37 -223 -14 -77 -29
-167 -34 -200 -5 -33 -22 -130 -37 -215 -14 -85 -36 -211 -48 -280 l-21 -125
-227 -3 -226 -2 -11 32 c-5 18 -31 119 -56 223 -25 105 -68 280 -95 390 -27
110 -63 258 -80 329 -18 71 -34 136 -37 143 -4 10 -33 13 -117 13 l-111 0 -52
-213 c-71 -288 -212 -867 -218 -894 l-5 -23 -230 0 c-127 0 -230 3 -230 8 0 4
-4 32 -10 62 -5 30 -25 147 -44 260 -19 113 -47 273 -61 355 -15 83 -33 188
-40 235 -8 47 -19 113 -26 148 l-11 62 -89 0 -89 0 0 -30z m1239 -262 c6 -29
21 -87 31 -128 11 -41 36 -145 55 -230 35 -151 52 -218 94 -386 12 -44 21 -83
21 -87 0 -4 -99 -7 -220 -7 -137 0 -220 4 -220 10 0 9 33 144 80 330 11 41 29
116 40 165 49 209 94 385 100 385 3 0 12 -24 19 -52z m-463 -1050 c-4 -24 -13
-65 -21 -93 -8 -27 -33 -126 -56 -220 -22 -93 -55 -233 -74 -310 -18 -77 -36
-152 -39 -167 -4 -15 -11 -40 -17 -55 -10 -26 -13 -19 -30 77 -10 58 -23 132
-28 165 -5 33 -21 128 -36 210 -15 83 -33 191 -41 240 -8 50 -18 108 -24 130
-5 22 -10 46 -10 53 0 9 45 12 191 12 l192 0 -7 -42z m1249 -10 c-3 -29 -13
-87 -20 -128 -15 -75 -39 -216 -55 -320 -16 -101 -61 -355 -68 -384 -9 -34 -6
-45 -81 264 -22 91 -65 265 -96 388 -30 122 -55 224 -55 227 0 3 86 5 191 5
l191 0 -7 -52z"/>
</g>
</svg>
